<?xml version="1.0" standalone="no"?><svg xmlns="http://www.w3.org/2000/svg" viewBox="0 0 1440 320"><path fill="#000b76" fill-opacity="1" d="M0,288L24,277.3C48,267,96,245,144,213.3C192,181,240,139,288,112C336,85,384,75,432,96C480,117,528,171,576,165.3C624,160,672,96,720,96C768,96,816,160,864,160C912,160,960,96,1008,58.7C1056,21,1104,11,1152,16C1200,21,1248,43,1296,64C1344,85,1392,107,1416,117.3L1440,128L1440,320L1416,320C1392,320,1344,320,1296,320C1248,320,1200,320,1152,320C1104,320,1056,320,1008,320C960,320,912,320,864,320C816,320,768,320,720,320C672,320,624,320,576,320C528,320,480,320,432,320C384,320,336,320,288,320C240,320,192,320,144,320C96,320,48,320,24,320L0,320Z"></path></svg>