<?xml version="1.0" standalone="no"?><svg xmlns="http://www.w3.org/2000/svg" viewBox="0 0 1440 320"><path fill="#000b76" fill-opacity="1" d="M0,288L24,277.3C48,267,96,245,144,213.3C192,181,240,139,288,112C336,85,384,75,432,96C480,117,528,171,576,165.3C624,160,672,96,720,96C768,96,816,160,864,160C912,160,960,96,1008,58.7C1056,21,1104,11,1152,16C1200,21,1248,43,1296,64C1344,85,1392,107,1416,117.3L1440,128L1440,0L1416,0C1392,0,1344,0,1296,0C1248,0,1200,0,1152,0C1104,0,1056,0,1008,0C960,0,912,0,864,0C816,0,768,0,720,0C672,0,624,0,576,0C528,0,480,0,432,0C384,0,336,0,288,0C240,0,192,0,144,0C96,0,48,0,24,0L0,0Z"></path></svg>