<?xml version='1.0' encoding='iso-8859-1'?>
<!DOCTYPE svg PUBLIC '-//W3C//DTD SVG 1.1//EN' 'http://www.w3.org/Graphics/SVG/1.1/DTD/svg11.dtd'>
<svg version="1.1" xmlns="http://www.w3.org/2000/svg" viewBox="0 0 297 297" xmlns:xlink="http://www.w3.org/1999/xlink" enable-background="new 0 0 297 297">
  <g>
    <path d="M258.135,87.685c5.512-0.138,9.94-4.64,9.94-10.185c0-1.867-0.501-3.616-1.378-5.122l-16.545-33.089   c-1.728-3.456-5.258-5.638-9.121-5.638h-49.902C186.519,14.377,169.157,0,148.49,0s-38.029,14.377-42.64,33.651H55.948   c-3.862,0-7.392,2.182-9.121,5.638L30.002,72.94c-1.581,3.161-1.411,6.915,0.446,9.921c1.808,2.927,4.969,4.724,8.396,4.818   L258.135,87.685z M148.49,20.395c9.28,0,17.317,5.418,21.118,13.257h-42.237C131.172,25.813,139.21,20.395,148.49,20.395z"/>
    <path d="m41.182,102.229l29.937,186.191c0.795,4.944 5.061,8.579 10.067,8.579h134.607c5.007,0 9.273-3.635 10.068-8.579l29.936-186.191h-214.615zm91.382,94.97c-0.579,0.145-1.16,0.215-1.73,0.215-2.931,0-5.598-1.83-6.651-4.627l-4.434,7.678h7.184c3.943,0 7.139,3.196 7.139,7.139s-3.195,7.138-7.139,7.138h-19.548c-2.551,0-4.906-1.36-6.183-3.569-1.274-2.208-1.274-4.929 0-7.138l11.033-19.108-.064,.016c-3.831,0.954-7.7-1.375-8.653-5.199-0.954-3.825 1.374-7.699 5.199-8.652l16.328-4.07c1.836-0.46 3.78-0.168 5.404,0.808 1.622,0.976 2.792,2.557 3.249,4.393l4.066,16.328c0.954,3.823-1.375,7.697-5.2,8.648zm-.474-34.688c-3.414-1.972-4.584-6.338-2.613-9.751l13.181-22.83c1.275-2.209 3.632-3.569 6.183-3.569 2.55,0 4.906,1.36 6.182,3.569l11.622,20.128c0.872-3.64 4.421-6.022 8.171-5.36 3.882,0.684 6.475,4.387 5.789,8.27l-2.921,16.57c-0.329,1.864-1.385,3.521-2.937,4.607-1.208,0.846-2.639,1.291-4.094,1.291-0.413,0-0.827-0.036-1.239-0.108l-16.571-2.924c-3.883-0.686-6.475-4.388-5.79-8.271 0.661-3.744 4.122-6.277 7.86-5.84l-6.072-10.518-6.999,12.122c-1.973,3.417-6.337,4.584-9.752,2.614zm63.686,48.661c-1.274,2.209-3.631,3.569-6.181,3.569h-21.883c2.477,2.762 2.44,7.007-0.178,9.718-1.4,1.45-3.267,2.179-5.135,2.179-1.786,0-3.572-0.665-4.959-2.004l-12.104-11.689c-1.361-1.315-2.145-3.118-2.178-5.012-0.032-1.893 0.688-3.722 2.004-5.083l11.691-12.102c2.738-2.836 7.259-2.915 10.093-0.175 2.771,2.676 2.9,7.048 0.35,9.892h9.934l-6.1-10.566c-1.971-3.415-0.801-7.779 2.614-9.75 3.415-1.974 7.78-0.799 9.75,2.613l12.28,21.273c1.278,2.209 1.278,4.93 0.002,7.137z"/>
  </g>
</svg>
