<?xml version="1.0" standalone="no"?><svg xmlns="http://www.w3.org/2000/svg" viewBox="0 0 1440 320"><path fill="#670067" fill-opacity="1" d="M0,96L20,112C40,128,80,160,120,144C160,128,200,64,240,74.7C280,85,320,171,360,192C400,213,440,171,480,133.3C520,96,560,64,600,53.3C640,43,680,53,720,74.7C760,96,800,128,840,128C880,128,920,96,960,74.7C1000,53,1040,43,1080,58.7C1120,75,1160,117,1200,117.3C1240,117,1280,75,1320,69.3C1360,64,1400,96,1420,112L1440,128L1440,0L1420,0C1400,0,1360,0,1320,0C1280,0,1240,0,1200,0C1160,0,1120,0,1080,0C1040,0,1000,0,960,0C920,0,880,0,840,0C800,0,760,0,720,0C680,0,640,0,600,0C560,0,520,0,480,0C440,0,400,0,360,0C320,0,280,0,240,0C200,0,160,0,120,0C80,0,40,0,20,0L0,0Z"></path></svg>