<?xml version="1.0" standalone="no"?><svg xmlns="http://www.w3.org/2000/svg" viewBox="0 0 1440 320"><path fill="#e7008a" fill-opacity="1" d="M0,288L20,250.7C40,213,80,139,120,101.3C160,64,200,64,240,85.3C280,107,320,149,360,181.3C400,213,440,235,480,250.7C520,267,560,277,600,277.3C640,277,680,267,720,245.3C760,224,800,192,840,197.3C880,203,920,245,960,266.7C1000,288,1040,288,1080,261.3C1120,235,1160,181,1200,138.7C1240,96,1280,64,1320,90.7C1360,117,1400,203,1420,245.3L1440,288L1440,320L1420,320C1400,320,1360,320,1320,320C1280,320,1240,320,1200,320C1160,320,1120,320,1080,320C1040,320,1000,320,960,320C920,320,880,320,840,320C800,320,760,320,720,320C680,320,640,320,600,320C560,320,520,320,480,320C440,320,400,320,360,320C320,320,280,320,240,320C200,320,160,320,120,320C80,320,40,320,20,320L0,320Z"></path></svg>