<?xml version="1.0" standalone="no"?>
<!DOCTYPE svg PUBLIC "-//W3C//DTD SVG 20010904//EN"
 "http://www.w3.org/TR/2001/REC-SVG-20010904/DTD/svg10.dtd">
<svg version="1.0" xmlns="http://www.w3.org/2000/svg"
 width="1080.000000pt" height="1080.000000pt" viewBox="0 0 1080.000000 1080.000000"
 preserveAspectRatio="xMidYMid meet">

<g transform="translate(0.000000,1080.000000) scale(0.100000,-0.100000)"
fill="#000000" stroke="none">
<path d="M9294 8773 c-27 -5 -77 -59 -93 -98 -13 -34 -96 -337 -197 -725 -37
-140 -332 -1253 -655 -2472 l-587 -2217 24 -248 c13 -136 31 -320 39 -407 9
-88 12 -162 8 -166 -11 -11 -160 -52 -333 -94 -376 -90 -801 -154 -1270 -192
-261 -21 -1042 -30 -1295 -15 -425 26 -630 55 -1225 172 -735 145 -953 177
-1345 200 -599 35 -1037 -89 -1454 -411 -93 -72 -106 -93 -75 -124 25 -25 47
-19 115 32 240 181 472 301 702 362 334 89 588 67 1357 -116 1290 -307 1570
-358 2113 -385 530 -27 1184 58 1982 257 290 73 818 227 843 247 20 15 15 64
-9 81 -21 14 -16 22 203 338 l225 323 587 2215 c323 1218 594 2238 603 2266
l16 52 105 -29 c57 -15 106 -30 108 -31 1 -2 -64 -258 -147 -568 -341 -1287
-391 -1482 -385 -1503 4 -18 19 -26 76 -41 78 -20 93 -15 112 34 18 46 618
2324 629 2388 16 90 7 105 -71 122 -61 13 -63 13 -81 -11 -10 -13 -28 -53 -40
-89 -12 -36 -23 -66 -24 -68 -2 -2 -51 9 -109 24 -84 22 -105 31 -101 43 2 9
16 66 30 126 14 61 44 176 66 257 52 195 60 236 49 283 -16 73 -45 89 -253
145 -184 49 -200 52 -243 43z"/>
<path d="M4470 8293 c-332 -22 -662 -112 -985 -268 -332 -161 -581 -340 -836
-601 -236 -243 -399 -475 -565 -806 -40 -81 -88 -163 -106 -184 -71 -81 -164
-114 -318 -114 -276 0 -365 -99 -412 -455 -31 -238 4 -369 124 -458 63 -47
155 -75 267 -83 110 -8 163 -31 195 -87 25 -43 58 -138 116 -327 160 -525 555
-963 1103 -1225 182 -87 303 -130 502 -180 641 -161 1398 -115 2130 129 474
158 895 383 1276 682 148 116 216 209 238 326 15 85 0 157 -59 273 -67 133
-106 183 -195 255 -109 86 -201 108 -320 76 -78 -20 -140 -56 -275 -158 -681
-512 -1624 -768 -2311 -628 -217 44 -442 133 -601 236 -114 74 -237 203 -282
295 -100 203 -43 355 145 389 30 6 531 58 1114 116 688 68 1102 114 1180 129
509 102 884 387 1004 765 99 310 47 681 -138 994 -357 604 -1151 967 -1991
909z m303 -1058 c212 -38 383 -118 485 -230 55 -58 74 -104 74 -175 0 -65 -12
-100 -53 -151 -47 -59 -116 -87 -286 -115 -534 -86 -1415 -192 -1624 -195
-145 -2 -195 39 -187 151 20 272 533 610 1068 704 118 21 136 23 295 24 88 1
173 -4 228 -13z"/>
</g>
</svg>
