<?xml version="1.0" standalone="no"?>
<!DOCTYPE svg PUBLIC "-//W3C//DTD SVG 20010904//EN"
 "http://www.w3.org/TR/2001/REC-SVG-20010904/DTD/svg10.dtd">
<svg version="1.0" xmlns="http://www.w3.org/2000/svg"
 width="540.000000pt" height="540.000000pt" viewBox="0 0 540.000000 540.000000"
 preserveAspectRatio="xMidYMid meet">

<g transform="translate(0.000000,540.000000) scale(0.100000,-0.100000)"
fill="#000000" stroke="none">
<path d="M4623 4368 c-24 -26 -12 18 -442 -1608 l-300 -1135 20 -195 c11 -107
18 -199 15 -205 -6 -18 -285 -83 -468 -110 -259 -38 -424 -49 -718 -49 -367
-1 -510 14 -905 94 -383 78 -646 108 -822 96 -120 -8 -266 -46 -367 -95 -93
-45 -226 -138 -226 -158 0 -31 33 -22 107 30 229 160 422 205 688 159 66 -12
273 -57 459 -102 755 -180 1045 -197 1581 -94 252 49 704 169 730 195 6 6 5
16 -2 28 -11 17 2 40 98 176 l109 157 300 1131 c165 622 302 1132 305 1135 8
8 105 -20 105 -31 0 -6 -59 -233 -131 -505 -71 -272 -129 -504 -127 -515 3
-23 64 -45 79 -30 11 11 329 1210 329 1240 0 17 -8 25 -32 31 -41 11 -54 2
-69 -48 l-12 -38 -51 15 c-28 8 -52 16 -53 17 -1 1 16 77 39 168 52 208 55
202 -90 241 -122 33 -123 33 -149 5z"/>
<path d="M2155 4139 c-156 -20 -346 -86 -500 -172 -241 -135 -460 -363 -585
-608 -29 -57 -62 -117 -73 -133 -29 -41 -90 -66 -166 -66 -88 0 -143 -27 -170
-83 -23 -48 -41 -147 -41 -227 0 -105 68 -175 182 -186 106 -11 118 -25 167
-189 81 -274 277 -496 555 -630 200 -96 400 -138 661 -137 229 0 437 36 670
114 279 94 615 293 707 418 48 65 50 131 8 217 -38 77 -108 149 -161 164 -67
21 -119 4 -220 -68 -426 -306 -909 -416 -1284 -292 -112 37 -185 79 -254 143
-108 103 -129 211 -51 267 21 15 120 28 580 74 323 32 594 64 648 76 252 56
440 220 483 420 17 78 6 240 -20 319 -64 188 -224 362 -429 464 -207 104 -464
146 -707 115z m293 -535 c110 -29 204 -102 218 -171 9 -45 -21 -100 -66 -123
-64 -32 -893 -141 -956 -126 -129 33 -20 219 192 328 206 106 428 140 612 92z"/>
</g>
</svg>
